PathFileType	4	(X/Y/Z)	D:\TRACE\v60_Jaco2_6-2-23\ArmBodyNoDRS_DMP_1-v60.trc
DataRate	CameraRate	NumFrames	NumMarkers	Units	OrigDataRate	OrigDataStartFrame	OrigNumFrames
100.00	100.00	      14	9	mm	100.00	1	      5315
Frame#	Time	front left toe			Front right toe			aft left toe			aft right toe			Arm			FL body			FR body			AL Body			AR Body			
		X1	Y1	Z1	X2	Y2	Z2	X3	Y3	Z3	X4	Y4	Z4	X5	Y5	Z5	X6	Y6	Z6	X7	Y7	Z7	X8	Y8	Z8	X9	Y9	Z9	

1	0.000	-121.06796	21.70564	-177.82645	283.22006	19.49429	-184.78777	-103.85974	14.61545	464.16754	298.22260	19.22510	414.22421	86.19272	1203.51416	-212.84346	-4.58159	574.40717	-314.78558	154.64775	576.51465	-319.14844	31.31202	578.25043	631.16327	184.78209	567.65448	625.86774	
2	0.010	-121.03230	21.66860	-177.81548	283.06726	19.47153	-184.81374	-103.87515	14.64431	464.16177	299.33118	19.60337	414.53705	86.11399	1203.65491	-212.93904	-4.60361	574.41949	-314.76920	154.56985	576.57898	-319.11551	31.03085	578.36090	630.70123	184.79720	567.64105	625.88782	
3	0.020	-121.06001	21.66632	-177.82950	283.16351	19.47463	-184.78891	-103.87645	14.63466	464.18149	298.17316	19.22908	414.20822	86.09841	1203.66504	-212.93927	-4.59997	574.39014	-314.79321	154.59988	576.55255	-319.14264	31.35053	578.27258	631.19385	184.76134	567.63391	625.89294	
4	0.030	-121.07164	21.65750	-177.79749	283.05707	19.42061	-184.82419	-103.87241	14.62162	464.18454	298.04276	19.18246	414.22394	86.15905	1203.50378	-212.86240	-4.58381	574.40350	-314.75284	154.61891	576.54517	-319.11743	30.98034	578.36511	630.71350	184.72809	567.61420	625.88287	
5	0.040	-121.01342	21.62461	-177.77650	283.21481	19.50858	-184.75179	-103.85760	14.61919	464.21420	298.09085	19.16029	414.19894	86.19071	1203.50317	-212.86029	-4.55813	574.39990	-314.75793	154.62402	576.54889	-319.14096	31.41603	578.15741	631.22736	184.76880	567.61523	625.88550	
6	0.050	-121.01254	21.63421	-177.80830	283.15472	19.46790	-184.78838	-103.91110	14.64293	464.18433	298.11279	19.19569	414.22974	86.20485	1203.50195	-212.84116	-4.58221	574.39691	-314.76105	154.61467	576.50549	-319.14972	31.41071	578.19611	631.18878	184.76360	567.60846	625.87390	
7	0.060	-121.00204	21.64553	-177.81023	283.24078	19.50274	-184.77481	-103.90391	14.65104	464.18036	298.12387	19.19099	414.20407	86.21367	1203.53101	-212.84985	-4.59890	574.39825	-314.77921	154.60919	576.55133	-319.14191	31.04947	578.35370	630.69958	184.77603	567.65698	625.85938	
8	0.070	-121.03120	21.63079	-177.81100	283.07761	19.44075	-184.82486	-103.92538	14.68618	464.20047	298.22495	19.26320	414.25812	86.21798	1203.49585	-212.83739	-4.60320	574.40936	-314.77161	154.56801	576.55621	-319.17276	31.04889	578.33258	630.67566	184.79289	567.63995	625.86865	
9	0.080	-121.02801	21.63651	-177.79759	283.14929	19.49667	-184.78548	-103.90876	14.65011	464.19092	298.14420	19.24136	414.24832	86.08694	1203.64539	-212.94981	-4.59650	574.38928	-314.77859	154.57816	576.54742	-319.17157	31.38062	578.16559	631.23334	184.75729	567.60938	625.86267	
10	0.090	-121.08009	21.66309	-177.79512	283.15677	19.46404	-184.81345	-103.89382	14.66367	464.14777	298.09885	19.22801	414.22610	86.21499	1203.49475	-212.85481	-4.60333	574.37231	-314.77789	154.60910	576.51373	-319.16739	31.09360	578.26361	630.73712	184.73424	567.59662	625.87433	
11	0.100	-121.04512	21.67784	-177.80058	283.30765	19.54635	-184.72707	-103.90550	14.65359	464.17551	298.20135	19.26170	414.22510	86.08719	1203.65894	-212.96306	-4.61052	574.41412	-314.76956	154.59012	576.53101	-319.21329	31.41094	578.20978	631.18640	184.77136	567.62280	625.86267	
12	0.110	-121.06542	21.66512	-177.78978	283.15588	19.51387	-184.74275	-103.92995	14.66617	464.17859	298.05719	19.17471	414.18042	86.16469	1203.49158	-212.84807	-4.58570	574.38586	-314.78140	154.64214	576.51013	-319.13300	31.32887	578.22192	631.20093	184.76891	567.59796	625.89111	
13	0.120	-121.04556	21.68165	-177.79472	283.28458	19.50267	-184.75882	-103.94896	14.65432	464.15823	298.21860	19.26641	414.21808	86.07709	1203.66663	-212.95746	-4.60230	574.37274	-314.77585	154.63309	576.53906	-319.14691	31.36691	578.19678	631.14825	184.77759	567.58215	625.88135	
14	0.130	-121.01987	21.64395	-177.80505	283.17032	19.47013	-184.80305	-103.93058	14.67381	464.14371	298.20108	19.24565	414.24805	86.13481	1203.65723	-212.93857	-4.62907	574.39087	-314.79919	154.61736	576.52966	-319.14578	31.07536	578.32623	630.67657	184.80521	567.63196	625.88092	
